<?xml version="1.0" standalone="no"?>
<!DOCTYPE svg PUBLIC "-//W3C//DTD SVG 20010904//EN"
 "http://www.w3.org/TR/2001/REC-SVG-20010904/DTD/svg10.dtd">
<svg version="1.0" xmlns="http://www.w3.org/2000/svg"
 width="461.000000pt" height="461.000000pt" viewBox="0 0 461.000000 461.000000"
 preserveAspectRatio="xMidYMid meet">
<metadata>
Created by potrace 1.11, written by Peter Selinger 2001-2013
</metadata>
<g transform="translate(0.000000,461.000000) scale(0.100000,-0.100000)"
fill="#000000" stroke="none">
<path d="M1410 4102 c-277 -19 -511 -200 -593 -457 -9 -27 -66 -250 -127 -495
-61 -245 -114 -453 -118 -464 -7 -15 -21 -19 -82 -22 -142 -7 -245 -52 -342
-149 -30 -31 -69 -82 -87 -114 -57 -108 -60 -138 -61 -653 l0 -469 24 -24 c24
-24 31 -25 146 -25 l120 0 1 -170 c1 -93 2 -173 3 -177 1 -5 5 -26 10 -48 12
-64 64 -150 122 -205 165 -156 423 -157 587 -1 110 104 137 187 137 429 l0
172 1153 0 1154 0 0 -178 c1 -196 12 -255 62 -333 89 -139 235 -215 396 -204
121 8 208 49 287 133 96 102 118 180 118 417 l0 165 120 0 c115 0 122 1 146
25 l24 24 0 463 c-1 511 -5 553 -60 657 -35 64 -111 146 -180 192 -59 40 -160
69 -249 72 -63 3 -76 6 -83 23 -4 10 -62 235 -128 499 -67 264 -132 503 -145
532 -99 218 -326 373 -560 383 -88 3 -1747 6 -1795 2z m1809 -599 c27 -26 37
-60 126 -423 54 -217 98 -399 99 -404 1 -10 -2258 -16 -2274 -6 -10 6 186 797
203 819 32 41 9 40 929 41 l888 0 29 -27z m-2381 -1213 c98 -35 191 -129 227
-230 23 -65 15 -194 -16 -261 -33 -70 -108 -144 -179 -178 -47 -22 -69 -26
-150 -26 -82 0 -103 4 -152 27 -71 33 -143 106 -177 178 -22 47 -26 69 -26
150 0 84 3 102 28 152 38 78 128 160 204 186 74 25 173 26 241 2z m3152 4 c99
-29 179 -98 227 -194 25 -48 28 -66 28 -150 0 -82 -4 -103 -26 -151 -33 -70
-104 -140 -177 -176 -51 -25 -68 -28 -157 -28 -95 0 -103 2 -163 34 -91 50
-156 129 -187 230 -14 45 -8 165 11 211 72 183 261 278 444 224z"/>
</g>
</svg>
